<svg xmlns="http://www.w3.org/2000/svg" xmlns:xlink="http://www.w3.org/1999/xlink" width="512" height="512" viewBox="0 0 512 512" fill="none">
<path     fill="#00005B"  d="M307.2 0C378.89 0 414.73 0 442.11 13.95Q444.35 15.0912 446.543 16.3194Q448.736 17.5476 450.879 18.861Q453.023 20.1744 455.113 21.5709Q457.203 22.9674 459.236 24.4449Q461.27 25.9224 463.244 27.4786Q465.218 29.0348 467.13 30.6673Q469.041 32.2998 470.887 34.0061Q472.733 35.7124 474.51 37.4898Q476.288 39.2673 477.994 41.1131Q479.7 42.959 481.333 44.8704Q482.965 46.7819 484.521 48.7559Q486.078 50.7299 487.555 52.7636Q489.033 54.7972 490.429 56.8873Q491.826 58.9773 493.139 61.1206Q494.452 63.2639 495.681 65.4571Q496.909 67.6503 498.05 69.89C512 97.27 512 133.11 512 204.8L512 307.2C512 378.89 512 414.73 498.05 442.11Q496.909 444.35 495.681 446.543Q494.452 448.736 493.139 450.879Q491.826 453.023 490.429 455.113Q489.033 457.203 487.555 459.236Q486.078 461.27 484.521 463.244Q482.965 465.218 481.333 467.13Q479.7 469.041 477.994 470.887Q476.288 472.733 474.51 474.51Q472.733 476.288 470.887 477.994Q469.041 479.7 467.13 481.333Q465.218 482.965 463.244 484.521Q461.27 486.078 459.236 487.555Q457.203 489.033 455.113 490.429Q453.023 491.826 450.879 493.139Q448.736 494.452 446.543 495.681Q444.35 496.909 442.11 498.05C414.73 512 378.89 512 307.2 512L204.8 512C133.11 512 97.27 512 69.89 498.05Q67.6503 496.909 65.4571 495.681Q63.2639 494.452 61.1206 493.139Q58.9773 491.826 56.8873 490.429Q54.7972 489.033 52.7636 487.555Q50.7299 486.078 48.7559 484.521Q46.7818 482.965 44.8704 481.333Q42.959 479.7 41.1131 477.994Q39.2673 476.288 37.4898 474.51Q35.7124 472.733 34.0061 470.887Q32.2998 469.041 30.6673 467.13Q29.0348 465.218 27.4786 463.244Q25.9224 461.27 24.4449 459.236Q22.9674 457.203 21.5709 455.113Q20.1744 453.023 18.861 450.879Q17.5476 448.736 16.3194 446.543Q15.0912 444.35 13.95 442.11C0 414.73 0 378.89 0 307.2L0 204.8C0 133.11 0 97.27 13.95 69.89Q15.0912 67.6503 16.3194 65.4571Q17.5476 63.2639 18.861 61.1206Q20.1744 58.9773 21.5709 56.8873Q22.9674 54.7972 24.4449 52.7636Q25.9224 50.7299 27.4786 48.7559Q29.0348 46.7818 30.6673 44.8704Q32.2998 42.959 34.0061 41.1131Q35.7124 39.2673 37.4898 37.4898Q39.2673 35.7124 41.1131 34.0061Q42.959 32.2998 44.8704 30.6673Q46.7818 29.0348 48.7559 27.4786Q50.7299 25.9224 52.7636 24.4449Q54.7972 22.9674 56.8873 21.5709Q58.9773 20.1744 61.1206 18.861Q63.2639 17.5476 65.4571 16.3194Q67.6503 15.0912 69.89 13.95C97.27 0 133.11 0 204.8 0L307.2 0Z">
</path>
<path     fill="url(#linear_0)" opacity="0.7" d="M307.2 0C378.89 0 414.73 0 442.11 13.95Q444.35 15.0912 446.543 16.3194Q448.736 17.5476 450.879 18.861Q453.023 20.1744 455.113 21.5709Q457.203 22.9674 459.236 24.4449Q461.27 25.9224 463.244 27.4786Q465.218 29.0348 467.13 30.6673Q469.041 32.2998 470.887 34.0061Q472.733 35.7124 474.51 37.4898Q476.288 39.2673 477.994 41.1131Q479.7 42.959 481.333 44.8704Q482.965 46.7819 484.521 48.7559Q486.078 50.7299 487.555 52.7636Q489.033 54.7972 490.429 56.8873Q491.826 58.9773 493.139 61.1206Q494.452 63.2639 495.681 65.4571Q496.909 67.6503 498.05 69.89C512 97.27 512 133.11 512 204.8L512 307.2C512 378.89 512 414.73 498.05 442.11Q496.909 444.35 495.681 446.543Q494.452 448.736 493.139 450.879Q491.826 453.023 490.429 455.113Q489.033 457.203 487.555 459.236Q486.078 461.27 484.521 463.244Q482.965 465.218 481.333 467.13Q479.7 469.041 477.994 470.887Q476.288 472.733 474.51 474.51Q472.733 476.288 470.887 477.994Q469.041 479.7 467.13 481.333Q465.218 482.965 463.244 484.521Q461.27 486.078 459.236 487.555Q457.203 489.033 455.113 490.429Q453.023 491.826 450.879 493.139Q448.736 494.452 446.543 495.681Q444.35 496.909 442.11 498.05C414.73 512 378.89 512 307.2 512L204.8 512C133.11 512 97.27 512 69.89 498.05Q67.6503 496.909 65.4571 495.681Q63.2639 494.452 61.1206 493.139Q58.9773 491.826 56.8873 490.429Q54.7972 489.033 52.7636 487.555Q50.7299 486.078 48.7559 484.521Q46.7818 482.965 44.8704 481.333Q42.959 479.7 41.1131 477.994Q39.2673 476.288 37.4898 474.51Q35.7124 472.733 34.0061 470.887Q32.2998 469.041 30.6673 467.13Q29.0348 465.218 27.4786 463.244Q25.9224 461.27 24.4449 459.236Q22.9674 457.203 21.5709 455.113Q20.1744 453.023 18.861 450.879Q17.5476 448.736 16.3194 446.543Q15.0912 444.35 13.95 442.11C0 414.73 0 378.89 0 307.2L0 204.8C0 133.11 0 97.27 13.95 69.89Q15.0912 67.6503 16.3194 65.4571Q17.5476 63.2639 18.861 61.1206Q20.1744 58.9773 21.5709 56.8873Q22.9674 54.7972 24.4449 52.7636Q25.9224 50.7299 27.4786 48.7559Q29.0348 46.7818 30.6673 44.8704Q32.2998 42.959 34.0061 41.1131Q35.7124 39.2673 37.4898 37.4898Q39.2673 35.7124 41.1131 34.0061Q42.959 32.2998 44.8704 30.6673Q46.7818 29.0348 48.7559 27.4786Q50.7299 25.9224 52.7636 24.4449Q54.7972 22.9674 56.8873 21.5709Q58.9773 20.1744 61.1206 18.861Q63.2639 17.5476 65.4571 16.3194Q67.6503 15.0912 69.89 13.95C97.27 0 133.11 0 204.8 0L307.2 0Z">
</path>
<g >
<g filter="url(#filter_0)">
<path     fill="#ADADFF"  d="M127.32 352L103.32 352L115.32 268.72L91.56 158.08L116.04 158.08L128.52 231.28Q129 233.2 129.48 236.08Q129.96 238.96 130.44 242.32Q132.36 237.28 134.76 231.52L163.56 158.08L189.48 158.08L139.08 268.72L127.32 352ZM217.56 354.4Q194.28 354.4 185.64 336.04Q177 317.68 182.04 279.04Q187.08 239.92 200.4 221.56Q213.72 203.2 236.52 203.2Q260.04 203.2 268.68 221.56Q277.32 239.92 272.28 279.04Q267.24 317.68 253.92 336.04Q240.6 354.4 217.56 354.4ZM219.24 332.8Q230.28 332.8 237.36 319.72Q244.44 306.64 248.28 279.04Q252.36 251.2 249 238Q245.64 224.8 234.6 224.8Q224.04 224.8 217.08 238Q210.12 251.2 206.04 279.04Q202.2 306.64 205.32 319.72Q208.44 332.8 219.24 332.8ZM307.8 352L284.52 352L313.08 150.4L336.36 150.4L307.8 352ZM323.88 352L365.4 278.08L341.88 205.6L365.16 205.6L380.04 255.76L407.4 205.6L431.16 205.6L389.16 279.28L412.68 352L388.92 352L374.28 302.56L347.64 352L323.88 352Z">
</path>
</g>
</g>
<defs>
<linearGradient id="linear_0" x1="100%" y1="100%" x2="0%" y2="0%" gradientUnits="objectBoundingBox">
<stop offset="0" stop-color="#FFFFFF" stop-opacity="0" />
<stop offset="1" stop-color="#FFFFFF" stop-opacity="0.2" />
</linearGradient>
<filter id="filter_0" x="87.5595703125" y="148.39990234375" width="347.6005859375" height="212" filterUnits="userSpaceOnUse" color-interpolation-filters="sRGB">
<feFlood flood-opacity="0" result="feFloodId_0"/>
<feColorMatrix in="SourceAlpha" type="matrix" values="0 0 0 0 0 0 0 0 0 0 0 0 0 0 0 0 0 0 127 0" result="hardAlpha_0"/>
<feOffset dx="0" dy="2"/>
<feGaussianBlur stdDeviation="2"/>
<feComposite in2="hardAlpha_0" operator="out"/>
<feColorMatrix type="matrix" values="0 0 0 0 0 0 0 0 0 0 0 0 0 0 0 0 0 0 0.25 0"/>
<feBlend mode="" in2="feFloodId_0" result="dropShadow_1_0"/>
<feBlend mode="normal" in="SourceGraphic" in2="dropShadow_1_0" result="shape_0"/>
</filter>
</defs>
</svg>
